<?xml version="1.0" encoding="UTF-8"?>
<svg width="20px" height="20px" viewBox="0 0 20 20" version="1.1" xmlns="http://www.w3.org/2000/svg" xmlns:xlink="http://www.w3.org/1999/xlink">
    <!-- Generator: Sketch 53.2 (72643) - https://sketchapp.com -->
    <title>icon/Edit</title>
    <desc>Created with Sketch.</desc>
    <g id="Symbols" stroke="none" stroke-width="1" fill="none" fill-rule="evenodd">
        <g id="Group-2" fill="#ffffff" fill-rule="nonzero">
            <path d="M10,2 L2.25,2 C1.00735931,2 -5.5067062e-13,3.00735931 -5.5067062e-13,4.25 L-5.54223334e-13,17.75 C-5.54223334e-13,18.9926407 1.00735931,20 2.25,20 L15.75,20 C16.9926407,20 18,18.9926407 18,17.75 L18,10 L17,10 L17,17.75 C17,18.4403559 16.4403559,19 15.75,19 L2.25,19 C1.55964406,19 1,18.4403559 1,17.75 L1,4.25 C1,3.55964406 1.55964406,3 2.25,3 L10,3 L10,2 Z M10,2 L2.25,2 C1.00735931,2 -5.5067062e-13,3.00735931 -5.5067062e-13,4.25 L-5.54223334e-13,17.75 C-5.54223334e-13,18.9926407 1.00735931,20 2.25,20 L15.75,20 C16.9926407,20 18,18.9926407 18,17.75 L18,10 L17,10 L17,17.75 C17,18.4403559 16.4403559,19 15.75,19 L2.25,19 C1.55964406,19 1,18.4403559 1,17.75 L1,4.25 C1,3.55964406 1.55964406,3 2.25,3 L10,3 L10,2 Z M16.268802,4.97590878 L14.8545884,3.56169522 L6.32523085,12.0910528 L5.67908155,14.1514157 L7.73944442,13.5052664 L16.268802,4.97590878 Z M16.9759088,4.268802 L18.294357,2.95035378 L16.8801434,1.53614022 L15.5616952,2.85458844 L16.9759088,4.268802 Z M17.5872502,0.82903344 L19.0014638,2.243247 C19.3919881,2.63377129 19.3919881,3.26693627 19.0014638,3.65746056 L8.27294709,14.3859772 L5.0652711,15.3919348 C4.8017821,15.4745675 4.52119506,15.3279544 4.43856241,15.0644654 C4.40801448,14.9670578 4.40801448,14.8626337 4.43856241,14.7652261 L5.44451997,11.5575501 L16.1730367,0.82903344 C16.5635609,0.438509148 17.1967259,0.438509148 17.5872502,0.82903344 Z" id="Combined-Shape"></path>
        </g>
    </g>
</svg>