<?xml version="1.0" encoding="UTF-8"?>
<svg version="1.1" viewBox="0 0 400 87" xmlns="http://www.w3.org/2000/svg">
<g fill="none" fill-rule="evenodd">
<g fill-rule="nonzero">
<path d="m129.12 2.3071l0.13854 0.10261 36.148 28.205 0.03477 0.0043192 36.559-28.504c0.32553-0.24888 0.71541-0.39717 1.1218-0.42853l0.15308-0.0062494h0.479c1.8569 0.011836 3.3638 1.483 3.4386 3.3199l0.002879 0.15832v79.035c-0.003842 0.54122-0.41802 0.98411-0.94617 1.0343l-0.10029 0.0055651h-21.371c-0.27685 0.0011174-0.54303-0.10749-0.73949-0.30256-0.1719-0.17069-0.27798-0.39523-0.3018-0.63417l-0.005128-0.10317v-35.409l-17.553 17.494c-0.40796 0.40465-1.0659 0.40465-1.4738 0l-17.546-17.494-0.017816-0.038036-0.011661 0.038036v35.409c-0.003811 0.54122-0.41799 0.98411-0.94614 1.0343l-0.10029 0.0055651h-21.371c-0.27685 0.0011174-0.54304-0.10749-0.73949-0.30256-0.1719-0.17069-0.278-0.39523-0.30184-0.63417l-0.005219-0.10317v-79.035c-0.006526-1.3267 0.74529-2.5407 1.936-3.1258 1.1389-0.55972 2.488-0.45006 3.5188 0.2745z" fill="#00828C"/>
<rect x="81.223" y="1.6802" width="23.508" height="83.559" rx="1.0464" fill="#00828C"/>
<path d="m41.444 1.717c-0.57625 0.0040158-1.0424 0.47017-1.0464 1.0464v40.715c3.734e-4 6.7358-3.5018 12.987-9.2463 16.505s-12.905 3.7946-18.904 0.73195c-0.50168-0.25235-1.1131-0.063722-1.3854 0.42741l-10.685 18.548c-0.15209 0.24597-0.19561 0.54391-0.12023 0.8231 0.075382 0.27919 0.26294 0.51474 0.51817 0.65074 6.1166 3.3463 12.962 5.138 19.934 5.2174 23.869 0.30214 43.397-19.632 43.397-43.478v-40.14c0-0.57793-0.4685-1.0464-1.0464-1.0464h-21.415z" fill="#00828C"/>
<path d="m129.26 2.4097c-1.0463-0.81582-2.4666-0.96227-3.6573-0.37711-1.1907 0.58516-1.9425 1.7991-1.9359 3.1258v79.035c0 0.27686 0.11052 0.54227 0.30698 0.73734 0.19646 0.19507 0.46264 0.30368 0.73949 0.30174h21.371c0.57506 0 1.0424-0.46404 1.0464-1.0391v-35.409l18.283-18.165-36.153-28.209z" fill="#00828C"/>
<path d="m261.9 1.717h-34.635c-0.56088 0.0076793-1.0159 0.45624-1.0317 1.0169v78.327c0 2.3076 1.8707 4.1783 4.1783 4.1783h31.489c23.161-0.54532 41.776-19.027 41.776-41.761s-18.615-41.223-41.776-41.761zm0 60.604h-12.189v-37.657h12.189c10.192 0.53058 18.298 8.7693 18.298 18.85 0 10.081-8.1061 18.276-18.298 18.806z" fill="#006678"/>
<path d="m356.91 0.64849c-23.649 0-42.821 19.171-42.822 42.82s19.168 42.822 42.817 42.825c23.649 0.0027131 42.823-19.166 42.827-42.815 0.001954-11.358-4.5088-22.252-12.54-30.285-8.031-8.0324-18.924-12.545-30.283-12.545zm0 62.159c-7.8253 0-14.88-4.7146-17.873-11.945-2.9932-7.2302-1.3355-15.552 4.1999-21.083 5.5354-5.5312 13.858-7.1826 21.086-4.1838s11.937 10.057 11.931 17.882c-0.00196 5.1284-2.0411 10.046-5.6688 13.671s-8.5469 5.6604-13.675 5.6584z" fill="#006678"/>
<path d="m203.75 1.6802h-0.479c-0.46098 0.0021152-0.90865 0.15479-1.2749 0.43478l-36.559 28.504 18.29 18.165v35.409c-7e-6 0.27686 0.11048 0.54227 0.30693 0.73734 0.19646 0.19507 0.46264 0.30368 0.73949 0.30174h21.371c0.57506 0 1.0424-0.46404 1.0465-1.0391v-79.035c0.008135-1.91-1.5315-3.4661-3.4414-3.4783z" fill="#006678"/>
<path d="m147.16 48.784l17.546 17.494c0.40796 0.40465 1.0659 0.40465 1.4738 0l17.553-17.494-18.29-18.165-18.283 18.165z" fill="#005469"/>
</g>
</g>
</svg>
